<svg width="792" height="500" viewBox="0 0 792 500" fill="none" xmlns="http://www.w3.org/2000/svg">
<path d="M51.3878 497.842C26.8677 468.163 10.7882 429.972 3.83093 392.362C-10.059 317.263 16.6384 235.829 68.0656 179.92C110.852 133.408 173.927 117.026 235.133 115.202C261.584 114.415 288.016 116.156 314.318 118.807C331.274 120.517 348.701 123.749 365.792 123.197C381.967 122.675 392.218 109.75 401.192 97.7951C415.699 78.4653 429.928 59.4165 448.996 44.2354C500.78 3.00767 580.49 -14.97 641.854 14.6944C670.377 28.4833 692.402 52.5946 703.421 82.3393C717.453 120.215 713.696 162.257 703.359 200.534C695.81 228.59 690.101 258.709 699.973 286.996C710.239 316.417 735.934 334.475 754.586 358.089C787.426 399.666 778.471 452.497 762.644 499.401L51.3878 497.842Z" fill="#EBF3FA"/>
<path d="M162.102 358.2C162.102 358.2 203.652 379.811 199.159 387.3C194.662 394.792 154.593 359.879 154.593 359.879C154.593 359.879 112.007 380.848 102.925 395.069C102.925 395.069 154.652 401.941 148.453 408.093C142.254 414.245 88.098 409.596 88.098 409.596C88.098 409.596 54.6407 439.112 70.7418 460.711C86.8428 482.309 104.082 481.383 109.371 477.272C114.66 473.16 139.963 439.998 143.556 444.193C147.145 448.391 136.583 475.91 123.06 485.267C123.06 485.267 167.404 498.049 179.733 478.806C192.066 459.563 185.333 445.323 193.173 433.568C201.009 421.814 210.341 416.057 208.978 423.94C207.615 431.824 190.906 449.009 191.492 463.933C192.078 478.858 191.082 489.786 207.522 475.833C223.962 461.881 245.226 430.367 237.125 414.362C236.77 413.664 236.434 412.998 236.113 412.362C236.887 413.55 237.125 414.362 237.125 414.362C241.316 412.698 253.448 414.794 262.49 416.739C263.958 417.159 266.064 417.649 268.994 418.221C270.28 418.529 271.325 418.792 272.053 418.974C291.299 424.62 314.164 447.592 314.164 447.592L317.901 444.789C298.574 416.893 266.804 414.251 266.804 414.251C243.175 410.158 229.026 398.36 229.026 398.36C229.026 398.36 236.199 352.335 200.226 348.193C200.226 348.19 175.961 348.421 162.102 358.2Z" fill="#DFEBFD"/>
<path d="M215.186 204.738C215.186 204.738 221.893 240.66 215.136 241.496C208.383 242.333 210.547 200.929 210.547 200.929C210.547 200.929 177.223 184.831 164.135 186.081C164.135 186.081 184.772 221.176 178.018 220.324C171.265 219.469 148.098 183.948 148.098 183.948C148.098 183.948 113.916 177.565 108.402 197.839C102.888 218.114 111.739 228.263 116.803 229.538C121.867 230.813 154.368 230.433 153.52 234.656C152.669 238.879 130.711 245.611 118.474 241.793C118.474 241.793 131.939 275.189 149.668 273.522C167.397 271.855 172.899 260.879 183.878 260.048C194.853 259.218 202.869 262.187 197.379 265.135C191.887 268.086 173.319 266.074 164.443 273.606C155.568 281.137 148.388 285.774 164.844 289.175C181.303 292.577 210.853 290.503 216.777 277.838C217.036 277.285 217.283 276.757 217.517 276.254C217.159 277.3 216.777 277.838 216.777 277.838C219.812 279.616 224.354 288.077 227.506 294.568C227.953 295.673 228.665 297.201 229.72 299.279C230.149 300.217 230.491 300.986 230.725 301.52C236.508 316.062 233.402 341.152 233.402 341.152L236.918 342.102C244.745 316.818 231.102 296.022 231.102 296.022C222.26 279.532 222.701 265.169 222.701 265.169C222.701 265.169 254.382 247.466 239.641 223.364C239.644 223.361 227.842 208.557 215.186 204.738Z" fill="#DFEBFD"/>
<path d="M623.297 113.115C614.56 80.8267 560.123 90.9145 560.123 90.9145C560.123 90.9145 523.16 147.422 512.406 148.765C501.653 150.108 534.586 94.276 534.586 94.276C513.751 92.2572 460.658 117.819 460.658 117.819C460.658 117.819 464.02 183.745 453.266 182.399C442.513 181.053 453.266 123.876 453.266 123.876C433.104 129.929 414.286 153.475 414.286 153.475C390.765 191.82 441.168 220.071 441.168 220.071C441.168 220.071 441.84 242.941 427.728 269.176C427.728 269.176 424.543 274.019 421.305 282.252H426.8C427.25 280.776 427.744 279.35 428.293 277.98C428.293 277.967 428.296 277.961 428.305 277.955C428.314 277.933 428.32 277.915 428.33 277.896C428.706 277.047 429.249 275.837 429.921 274.362C429.921 274.359 429.924 274.359 429.924 274.356C429.924 274.353 429.927 274.353 429.927 274.349C431.605 271.059 432.74 268.63 433.458 266.873C433.461 266.867 433.461 266.861 433.464 266.858C438.497 256.529 445.744 243.071 450.58 240.246C450.58 240.246 449.972 239.391 449.405 237.721C449.781 238.527 450.17 239.366 450.58 240.246C459.989 260.428 507.034 263.789 533.244 258.409C559.454 253.029 548.028 245.626 533.916 233.619C519.804 221.608 490.233 224.775 481.496 220.064C472.759 215.357 485.53 210.646 503.003 211.992C520.477 213.338 529.213 230.828 557.44 233.52C585.667 236.212 607.171 183.069 607.171 183.069C587.681 189.122 552.734 178.361 551.39 171.632C550.045 164.906 601.793 165.579 609.858 163.56C617.919 161.55 632.034 145.403 623.297 113.115Z" fill="#DFEBFD"/>
<path d="M542.126 62.4168L498.232 68.6861L527.36 48.8131L528.843 55.1843L539.517 57.1198L542.126 62.4168Z" fill="#9EC3F6"/>
<path d="M498.232 68.6862L534.758 49.8349L570.559 48.0322L498.232 68.6862Z" fill="white"/>
<path d="M527.36 48.8131L498.232 68.6862L520.782 37.6265L527.36 48.8131Z" fill="white"/>
<path d="M470.073 85.139V475.531C470.073 485.156 462.28 492.953 452.665 492.953H234.324C224.709 492.953 216.916 485.156 216.916 475.531V85.139C216.916 75.5143 224.709 67.7139 234.324 67.7139H452.665C462.28 67.7139 470.073 75.5143 470.073 85.139Z" fill="#C0D8FB"/>
<path d="M465.639 67.7139H220.62V231.199H465.639V67.7139Z" fill="#F0F6FF"/>
<path d="M374.383 88.9605H312.603C303.459 88.9605 296.045 81.5398 296.045 72.3873H390.943C390.943 81.5398 383.53 88.9605 374.383 88.9605Z" fill="#2B478B"/>
<path d="M453.112 497.626H233.874C222.078 497.626 212.481 487.508 212.481 475.071V85.5959C212.481 73.159 222.078 63.0404 233.874 63.0404H453.112C464.908 63.0404 474.505 73.159 474.505 85.5959V475.074C474.505 487.511 464.908 497.626 453.112 497.626ZM233.874 72.3873C226.966 72.3873 221.347 78.3141 221.347 85.5959V475.074C221.347 482.356 226.966 488.282 233.874 488.282H453.112C460.02 488.282 465.642 482.356 465.642 475.074V85.5959C465.642 78.3141 460.023 72.3873 453.112 72.3873H233.874Z" fill="#2B478B"/>
<path d="M451.955 492.808H228.218C221.822 492.808 216.638 487.619 216.638 481.217V465.517H470.348V474.398C470.348 484.566 462.114 492.808 451.955 492.808Z" fill="#2B478B"/>
<path d="M490.877 281.147C500.441 279.103 510.414 281.996 517.488 288.75C520.609 291.728 524.036 295.451 527.181 299.85C534.98 310.749 520.048 321.538 522.031 325.23C524.017 328.922 528.618 331.839 526.604 339.55C524.591 347.261 511.311 357.265 506.982 357.709C463.107 362.219 444.064 338.006 458.731 324.955C473.398 311.904 467.412 292.969 479.322 285.613C483.001 283.345 487.044 281.968 490.877 281.147Z" fill="#233862"/>
<path d="M513.192 348.662C513.192 348.662 554.514 366.683 562.014 366.353C569.514 366.022 615.732 352.261 615.732 352.261L614.554 360.219C614.554 360.219 578.886 380.753 566.418 381.916C554.141 383.065 512.162 370.887 508.11 368.316C504.058 365.744 501.415 351.261 513.192 348.662Z" fill="#ED985F"/>
<path d="M518.213 368.341C514.583 370.859 510.034 372.94 504.32 374.258C482.908 379.209 474.702 361.096 471.618 348.662C474.539 346.989 477.286 346.622 478.872 346.43C480.42 346.248 482.048 346.125 483.396 346.06C485.801 344.217 489.381 336.673 490.174 324.958L491.182 325.23L508.058 329.854C508.058 329.854 507.284 335.225 506.904 340.3C506.611 344.273 506.565 348.066 507.317 348.995C508.634 349.282 509.424 349.468 509.424 349.468C509.424 349.468 509.424 349.474 509.433 349.483C509.664 349.85 514.562 357.91 518.213 368.341Z" fill="#FFB27D"/>
<path d="M508.064 329.854C508.064 329.854 507.287 335.219 506.914 340.3C497.354 339.343 492.916 330.23 491.189 325.233L508.064 329.854Z" fill="#ED985F"/>
<path d="M510.92 334.895C510.92 334.895 488.225 333.641 489.224 319.507C490.221 305.372 487.963 295.692 502.494 295.896C517.026 296.099 519.456 301.69 520.27 306.49C521.084 311.286 516.847 334.854 510.92 334.895Z" fill="#FFB27D"/>
<path d="M520.159 298.581C516.961 294.078 514.244 294.821 512.671 295.994C500.771 288.287 492.065 297.794 492.065 297.794C489.823 307.826 482.101 313.111 482.101 313.111C482.101 313.111 486.122 316.33 495.75 314.194C508.067 311.463 512.295 300.773 512.869 299.131C514.164 300.473 515.835 301.328 517.118 304.242C518.642 307.703 519.598 309.712 519.626 315.395C519.622 315.392 524.958 305.335 520.159 298.581Z" fill="#233862"/>
<path d="M465.157 414.523C463.107 404.037 456.427 362.142 463.107 348.659C465.506 343.816 474.924 343.377 485.255 343.803C488.469 345.881 500.721 353.73 505.751 352.752C505.803 352.743 505.902 352.718 506.031 352.687C508.4 352.094 509.294 350.428 507.32 348.992C507.317 348.989 512.437 348.498 518.793 349.696C522.382 350.372 532.063 355.385 532.063 355.385C532.063 355.385 527.187 364.201 519.998 367.245C521.22 378.191 519.403 383.018 508.061 408.3C498.476 429.67 509.353 448.907 509.353 448.907C509.353 448.907 452.927 494.317 452.612 471.197C452.378 453.787 467.779 427.926 465.157 414.523Z" fill="white"/>
<path d="M512.153 498.284C515.222 497.938 517.985 496.256 519.699 493.684C519.971 493.277 520.264 492.839 520.572 492.369C526.996 482.637 529.494 452.83 543.942 421.076C547.461 413.346 560.092 411.954 563.537 403.215C563.537 403.215 572.015 374.891 547.31 374.054C522.604 373.218 481.148 452.867 480.494 461.22C479.859 469.314 464.161 503.704 512.153 498.284Z" fill="#ED7D2B"/>
<path d="M610.342 497.632H575.179C575.179 497.632 573.865 492.021 576.172 488.199C578.217 484.819 577.434 482.893 575.919 480.099C577.514 480.751 579.574 481.346 581.84 481.217C583.592 481.115 585.445 480.318 587.071 479.377C588.585 481.102 595.064 488.455 597.09 489.912C599.388 491.561 609.636 490.971 610.342 497.632Z" fill="#233862"/>
<path d="M564.342 382.244C566.46 398.131 574.728 448.28 589.312 472.746C594.015 480.633 577.464 485.057 577.374 485.032C575.154 484.452 571.456 480.908 569.754 479.371C557.912 468.69 533.876 438.442 533.876 414.192C533.876 402.37 533.669 379.786 542.258 374.048C547.547 370.517 563.5 375.934 564.342 382.244Z" fill="#ED7D2B"/>
<path d="M491.186 497.632C491.186 497.632 492.487 495.817 494.76 492.369C497.465 488.27 500.456 480.201 504.089 469.86C507.904 459.004 512.428 445.647 518.08 431.75C519.826 427.46 521.679 423.119 523.65 418.782C527.169 411.053 536.849 412.121 540.294 403.382C540.294 403.382 553.733 373.088 529.028 372.251C504.323 371.415 457.38 453.293 454.682 461.223C451.73 469.903 437.322 505.948 491.186 497.632Z" fill="#F99746"/>
<path d="M584.529 497.632H549.367C549.367 497.632 548.053 492.021 550.36 488.199C552.404 484.819 551.621 482.893 550.107 480.099C551.698 480.751 553.761 481.346 556.028 481.217C557.78 481.115 559.633 480.318 561.258 479.377C562.772 481.102 569.252 488.455 571.278 489.912C573.575 491.561 583.823 490.971 584.529 497.632Z" fill="#2B478B"/>
<path d="M504.089 469.86C507.904 459.004 512.428 445.647 518.081 431.75C516.604 421.221 513.418 412.01 508.064 408.296C508.061 408.296 495.069 448.589 504.089 469.86Z" fill="#F58F3E"/>
<path d="M543.816 381.12C545.934 397.008 548.916 448.283 563.5 472.75C568.203 480.636 551.652 485.06 551.562 485.035C549.342 484.455 545.644 480.911 543.942 479.374C532.1 468.693 508.064 438.446 508.064 414.195C508.064 402.373 521.926 380.737 530.515 374.999C535.807 371.464 542.974 374.807 543.816 381.12Z" fill="#F99746"/>
<path d="M619.929 331.786L583.922 327.958C582.873 327.847 581.88 328.459 581.504 329.443L568.619 363.331C568.055 364.815 569.113 366.417 570.698 366.482L606.428 367.924C607.4 367.964 608.291 367.393 608.667 366.498L621.829 334.996C622.427 333.561 621.478 331.95 619.929 331.786Z" fill="#233862"/>
<path d="M623.057 332.113L587.046 328.286C585.997 328.175 585.004 328.786 584.628 329.771L571.744 363.658C571.179 365.142 572.234 366.745 573.822 366.809L609.552 368.251C610.524 368.291 611.415 367.72 611.791 366.825L624.953 335.324C625.558 333.888 624.605 332.277 623.057 332.113Z" fill="#2B478B"/>
<path d="M603.098 347.937C603.539 346.726 602.916 345.748 601.707 345.748C600.498 345.748 599.163 346.73 598.722 347.937C598.281 349.147 598.904 350.128 600.113 350.128C601.322 350.125 602.657 349.147 603.098 347.937Z" fill="#EBF3FA"/>
<path d="M621.981 335.318C622.196 334.725 621.891 334.24 621.296 334.24C620.704 334.24 620.047 334.722 619.831 335.318C619.615 335.913 619.92 336.395 620.516 336.395C621.108 336.392 621.765 335.91 621.981 335.318Z" fill="#EBF3FA"/>
<path d="M471.622 348.662C471.622 348.662 521.528 367.059 529.025 366.683C533.873 366.439 574.158 352.264 574.158 352.264L577.776 359.114C577.776 359.114 538.564 384.34 527.786 384.216C506.504 383.969 470.592 370.893 466.539 368.322C462.487 365.751 459.844 351.261 471.622 348.662Z" fill="#FFB27D"/>
<path d="M574.161 352.261C574.161 352.261 577.779 346.689 581.381 346.526C584.982 346.362 591.203 348.983 593.331 349.394C595.458 349.804 601.515 351.77 599.714 354.718C597.913 357.666 589.565 358.324 585.963 357.666C582.361 357.012 577.779 359.108 577.779 359.108L574.161 352.261Z" fill="#FFB27D"/>
<path d="M580.4 346.699C580.4 346.699 586.127 344.069 587.764 343.578C589.402 343.087 589.075 343.587 588.582 345.14C588.091 346.692 585.143 348.174 585.143 348.662C585.143 349.15 580.4 346.699 580.4 346.699Z" fill="#FFB27D"/>
<path d="M619.35 349.313C619.35 349.313 615.739 343.596 614.558 343.362C610.956 342.649 610.956 347.396 611.72 350.458C612.541 353.743 615.313 356.845 616.081 356.573C616.846 356.302 620.198 352.332 619.35 349.313Z" fill="#FFB27D"/>
<path d="M619.485 350.458C619.485 350.458 620.639 356.873 614.554 360.219L616.355 355.805L619.485 350.458Z" fill="#FFB27D"/>
<path d="M515.166 326.767C515.166 326.767 513.02 325.918 506.984 326.406C506.984 326.406 507.305 328.764 511.758 328.996C514.278 329.128 515.166 326.767 515.166 326.767Z" fill="white"/>
<path d="M497.335 357.734C497.335 357.734 492.872 371.878 477.542 375.098C477.542 375.098 452.226 367.291 464.83 350.029C464.83 350.026 477.292 340.756 497.335 357.734Z" fill="white"/>
<path d="M443.493 95.5633L440.974 97.3722L438.442 95.5818C439.003 94.7916 439.931 94.2699 440.974 94.2699C442.01 94.2699 442.932 94.7792 443.493 95.5633Z" fill="#2B478B"/>
<path d="M440.974 89.8588C438.442 89.8588 436.2 91.1213 434.843 93.0475L436.443 94.1711C437.449 92.745 439.108 91.8189 440.974 91.8189C442.827 91.8189 444.474 92.7326 445.479 94.1402L447.074 92.9981C445.704 91.0935 443.481 89.8588 440.974 89.8588Z" fill="#2B478B"/>
<path d="M440.974 81.475C435.614 81.475 430.874 84.142 428.003 88.2197L429.603 89.3433C432.123 85.7749 436.283 83.4351 440.977 83.4351C445.631 83.4351 449.763 85.7348 452.292 89.2569L453.877 88.1148C450.993 84.0957 446.287 81.475 440.974 81.475Z" fill="#2B478B"/>
<path d="M440.973 86.0619C437.162 86.0619 433.779 87.951 431.722 90.8465L433.322 91.9701C435.028 89.584 437.819 88.022 440.973 88.022C444.1 88.022 446.876 89.5562 448.584 91.9114L450.17 90.7755C448.106 87.9171 444.751 86.0619 440.973 86.0619Z" fill="#2B478B"/>
<path d="M790.858 500H0.996101C0.447166 500 0 499.549 0 499.003V498.401C0 497.852 0.45025 497.404 0.996101 497.404H790.858C791.407 497.404 791.854 497.855 791.854 498.401V499.003C791.857 499.552 791.407 500 790.858 500Z" fill="#2E3552"/>
<circle cx="346" cy="340" r="50" fill="white"/>
<path d="M340.797 357.92C341.832 358.277 342.916 358.496 343.973 358.778C343.973 362.547 343.973 369.977 343.973 373.701H347.986C347.986 369.955 347.986 362.516 347.986 358.711C348.487 358.613 348.904 358.551 349.311 358.449C355.646 356.85 359.761 352.963 361.464 346.613C362.303 343.486 361.89 340.288 361.953 337.119C361.978 335.857 361.18 335.05 360.076 335.046C358.949 335.042 358.217 335.808 358.192 337.099C358.166 338.446 358.176 339.796 358.209 341.145C358.288 344.433 357.734 347.518 355.663 350.215C352.622 354.176 347.405 355.934 342.642 354.536C337.74 353.096 334.212 348.827 333.889 343.805C333.758 341.773 333.836 339.728 333.797 337.687C333.787 337.182 333.785 336.651 333.627 336.183C333.349 335.361 332.476 334.931 331.591 335.064C330.701 335.199 330.04 335.947 330.024 336.98C329.991 338.959 329.995 340.941 330.016 342.92C330.083 349.737 334.362 355.699 340.797 357.92Z" fill="#383838"/>
<path d="M346.593 351.236C341.396 351.236 337.186 347.026 337.186 341.83V322.406C337.186 317.21 341.396 313 346.593 313C351.789 313 356 317.21 356 322.406V341.83C356 347.024 351.787 351.236 346.593 351.236Z" fill="#383838"/>
<path d="M370.438 158.995L312.266 159.016C309.677 159.017 307.557 156.899 307.556 154.31C307.555 151.721 309.673 149.602 312.263 149.601L370.435 149.58C373.024 149.579 375.144 151.696 375.145 154.285C375.146 156.875 373.028 158.994 370.438 158.995Z" fill="#383838"/>
<path d="M384.556 141.728C384.558 147.77 379.617 152.715 373.575 152.717L309.753 152.741C303.711 152.743 298.765 147.802 298.764 141.761L298.759 127.15C298.755 116.141 307.76 107.131 318.77 107.126L364.526 107.109C375.536 107.106 384.547 116.11 384.552 127.118L384.556 141.728Z" fill="#39C9FE"/>
<path d="M309.323 155.251L374.005 155.228C379.811 155.225 384.562 159.973 384.564 165.778L384.567 174.263C384.576 197.853 365.286 238.502 341.694 238.511C318.101 238.52 298.783 197.885 298.774 174.295L298.77 165.81C298.769 160.004 303.517 155.253 309.323 155.251Z" fill="#39C9FE"/>
<path d="M364.652 140.881L318.788 141.145C313.736 141.175 309.615 137.102 309.587 132.05C309.557 126.998 313.63 122.878 318.683 122.849L364.547 122.585C369.6 122.555 373.72 126.628 373.749 131.68C373.778 136.732 369.705 140.852 364.652 140.881Z" fill="#383838"/>
<path d="M327.782 131.992C327.799 134.154 326.06 135.921 323.896 135.939C321.733 135.956 319.966 134.217 319.949 132.054C319.932 129.891 321.671 128.124 323.834 128.107C325.997 128.09 327.764 129.829 327.782 131.992Z" fill="white"/>
<path d="M362.579 131.714C362.596 133.876 360.857 135.644 358.694 135.661C356.531 135.678 354.763 133.939 354.746 131.776C354.729 129.614 356.468 127.846 358.632 127.829C360.794 127.813 362.562 129.551 362.579 131.714Z" fill="white"/>
<path d="M304.694 98.0059C304.694 99.2058 303.721 100.18 302.521 100.18C301.321 100.18 300.347 99.2078 300.347 98.0079C300.347 96.8081 301.319 95.8342 302.519 95.8339C303.719 95.8337 304.693 96.8061 304.694 98.0059Z" fill="url(#paint0_linear)"/>
<path d="M302.526 115.963C302.526 115.963 307.717 116.625 310.553 109.85L309.172 107.007C308.702 106.04 307.533 105.642 306.57 106.124L303.591 107.615C302.937 107.943 302.524 108.611 302.524 109.343L302.526 115.963Z" fill="#383838"/>
<path d="M302.951 99.0113C302.894 98.879 302.695 98.9392 302.722 99.0807L304.514 108.617C304.554 108.835 304.701 109.016 304.905 109.102C305.109 109.187 305.341 109.165 305.525 109.043L306.078 108.674C306.537 108.367 306.712 107.777 306.494 107.269L302.951 99.0113Z" fill="url(#paint1_linear)"/>
<path d="M378.586 97.9787C378.587 99.1785 379.56 100.152 380.761 100.151C381.961 100.15 382.934 99.1773 382.933 97.9767C382.933 96.7769 381.959 95.8036 380.759 95.8047C379.559 95.8057 378.586 96.7789 378.586 97.9787Z" fill="url(#paint2_linear)"/>
<path d="M380.766 115.934C380.766 115.934 375.576 116.6 372.736 109.826L374.115 106.982C374.584 106.014 375.754 105.616 376.716 106.097L379.695 107.585C380.35 107.912 380.763 108.581 380.764 109.312L380.766 115.934Z" fill="#383838"/>
<path d="M380.558 99.0525L378.781 108.549C378.739 108.775 378.586 108.965 378.374 109.055C378.162 109.145 377.919 109.121 377.727 108.994L377.21 108.649C376.751 108.343 376.574 107.752 376.792 107.245L380.33 98.983C380.386 98.8501 380.585 98.9108 380.558 99.0525Z" fill="url(#paint3_linear)"/>
<defs>
<linearGradient id="paint0_linear" x1="300.349" y1="98.1103" x2="304.691" y2="97.9033" gradientUnits="userSpaceOnUse">
<stop stop-color="#4F52FF"/>
<stop offset="1" stop-color="#4042E2"/>
</linearGradient>
<linearGradient id="paint1_linear" x1="302.959" y1="104.096" x2="306.408" y2="103.932" gradientUnits="userSpaceOnUse">
<stop stop-color="#4F52FF"/>
<stop offset="1" stop-color="#4042E2"/>
</linearGradient>
<linearGradient id="paint2_linear" x1="378.589" y1="98.0815" x2="382.931" y2="97.8745" gradientUnits="userSpaceOnUse">
<stop stop-color="#4F52FF"/>
<stop offset="1" stop-color="#4042E2"/>
</linearGradient>
<linearGradient id="paint3_linear" x1="376.528" y1="104.14" x2="380.795" y2="103.937" gradientUnits="userSpaceOnUse">
<stop stop-color="#4F52FF"/>
<stop offset="1" stop-color="#4042E2"/>
</linearGradient>
</defs>
</svg>
